<svg width="56" height="56" viewBox="0 0 56 56" fill="none" xmlns="http://www.w3.org/2000/svg">
<path fill-rule="evenodd" clip-rule="evenodd" d="M28 56C43.464 56 56 43.464 56 28C56 12.536 43.464 0 28 0C12.536 0 0 12.536 0 28C0 43.464 12.536 56 28 56Z" fill="#DD2242"/>
<path d="M28.1763 37.3169C26.9791 37.3169 25.8875 37.1056 24.9015 36.6831C23.9332 36.2429 23.1585 35.5827 22.5775 34.7024C21.9965 33.8221 21.6884 32.7217 21.6532 31.4013H24.4262C24.4614 32.3872 24.7959 33.2235 25.4297 33.9101C26.0812 34.5792 26.9967 34.9137 28.1763 34.9137C29.3031 34.9137 30.1658 34.6056 30.7644 33.9894C31.363 33.3555 31.6623 32.5721 31.6623 31.639C31.6623 30.5122 31.2573 29.6759 30.4475 29.1301C29.6552 28.5843 28.678 28.3114 27.516 28.3114H26.1428V25.9874H27.5425C28.5812 25.9874 29.4175 25.7409 30.0513 25.248C30.7027 24.755 31.0285 24.0595 31.0285 23.1616C31.0285 22.4046 30.7732 21.7884 30.2626 21.313C29.7696 20.8376 29.0654 20.6 28.1499 20.6C27.1991 20.6 26.4509 20.8816 25.9051 21.445C25.3593 21.9908 25.06 22.6775 25.0072 23.505H22.2342C22.2694 22.431 22.5335 21.4979 23.0265 20.7056C23.5371 19.9133 24.2325 19.2971 25.1128 18.857C25.9931 18.4168 27.0055 18.1967 28.1499 18.1967C29.3823 18.1967 30.4122 18.4168 31.2397 18.857C32.0848 19.2795 32.7186 19.8605 33.1412 20.6C33.5813 21.3218 33.8014 22.1141 33.8014 22.9768C33.8014 23.9627 33.5285 24.8254 32.9827 25.5649C32.4369 26.3043 31.7063 26.7973 30.7908 27.0438C31.8471 27.2727 32.7186 27.792 33.4053 28.6019C34.0919 29.3942 34.4352 30.4241 34.4352 31.6918C34.4352 32.7129 34.1975 33.6548 33.7222 34.5175C33.2468 35.3626 32.5426 36.0405 31.6095 36.551C30.6763 37.0616 29.5319 37.3169 28.1763 37.3169Z" fill="white"/>
</svg>
