<svg width="56" height="56" viewBox="0 0 56 56" fill="none" xmlns="http://www.w3.org/2000/svg">
<path fill-rule="evenodd" clip-rule="evenodd" d="M28 56C43.464 56 56 43.464 56 28C56 12.536 43.464 0 28 0C12.536 0 0 12.536 0 28C0 43.464 12.536 56 28 56Z" fill="#DD2242"/>
<path d="M22.1488 37V34.9929C23.346 34.0422 24.4904 33.0827 25.582 32.1143C26.6736 31.146 27.6419 30.1953 28.487 29.2621C29.3497 28.3114 30.0275 27.3871 30.5205 26.4892C31.0135 25.5737 31.2599 24.6934 31.2599 23.8483C31.2599 23.2849 31.1631 22.7567 30.9694 22.2637C30.7758 21.7532 30.4589 21.3482 30.0187 21.0489C29.5786 20.732 28.9888 20.5735 28.2493 20.5735C27.1401 20.5735 26.3038 20.9257 25.7404 21.6299C25.1947 22.3341 24.9306 23.1792 24.9482 24.1652H22.228C22.2456 22.8623 22.5185 21.7708 23.0467 20.8905C23.5925 20.0102 24.3144 19.3411 25.2123 18.8834C26.1278 18.4256 27.1577 18.1967 28.3021 18.1967C30.0451 18.1967 31.436 18.6897 32.4748 19.6756C33.5311 20.644 34.0593 21.9996 34.0593 23.7426C34.0593 24.7814 33.804 25.8113 33.2934 26.8325C32.8005 27.8537 32.1491 28.8396 31.3392 29.7903C30.5469 30.7234 29.693 31.6037 28.7775 32.4312C27.862 33.2587 26.9905 34.007 26.163 34.676H34.6139V37H22.1488Z" fill="white"/>
</svg>
